<?xml version="1.0" standalone="no"?><!DOCTYPE svg PUBLIC "-//W3C//DTD SVG 1.1//EN" "http://www.w3.org/Graphics/SVG/1.1/DTD/svg11.dtd"><svg t="1717927493386" class="icon" viewBox="0 0 1024 1024" version="1.1" xmlns="http://www.w3.org/2000/svg" p-id="2642" xmlns:xlink="http://www.w3.org/1999/xlink" width="200" height="200"><path d="M791.272727 930.909091H232.727273c-130.327273 0-232.727273-102.4-232.727273-232.727273V325.818182c0-130.327273 102.4-232.727273 232.727273-232.727273h558.545454c130.327273 0 232.727273 102.4 232.727273 232.727273v372.363636c0 130.327273-102.4 232.727273-232.727273 232.727273zM232.727273 167.563636C144.290909 167.563636 74.472727 237.381818 74.472727 325.818182v372.363636c0 88.436364 69.818182 158.254545 158.254546 158.254546h558.545454c88.436364 0 158.254545-69.818182 158.254546-158.254546V325.818182c0-88.436364-69.818182-158.254545-158.254546-158.254546H232.727273z" fill="#2c2c2c" p-id="2643"></path><path d="M210.711273 265.309091l321.163636 223.418182c18.618182 13.963636 18.618182 37.236364 9.309091 51.2-13.963636 18.618182-37.236364 18.618182-51.2 9.309091L168.820364 325.818182c-18.618182-13.963636-18.618182-37.236364-9.309091-51.2 13.963636-18.618182 37.236364-23.272727 51.2-9.309091z" fill="#2c2c2c" p-id="2644"></path><path d="M856.343273 324.421818l-320.232728 224.442182c-15.220364 10.705455-41.192727 6.097455-51.851636-9.122909-10.705455-15.266909-6.144-41.192727 9.122909-51.898182l320.232727-224.395636c15.220364-10.705455 41.146182-6.144 51.851637 9.122909 10.705455 15.220364 6.097455 41.192727-9.122909 51.851636z" fill="#2c2c2c" p-id="2645"></path><path d="M865.466182 272.570182c-10.705455-15.266909-36.631273-19.828364-51.898182-9.122909l-301.149091 211.037091-300.637091-209.92c-14.475636-12.567273-38.865455-6.842182-51.479273 7.633454-4.933818 9.169455-9.867636 18.338909-8.378181 28.625455a29.696 29.696 0 0 0 16.058181 22.853818l324.282182 227.514182c2.653091 3.770182 9.169455 4.933818 19.456 3.397818l3.816728-2.653091c9.122909 4.933818 16.756364-0.418909 20.57309-3.072l320.232728-224.442182c15.220364-10.705455 19.781818-36.631273 9.122909-51.851636z" fill="#2c2c2c" p-id="2646"></path></svg>